# xmcd
#
# Track frame offsets:
#  183
#  14100
#  23628
#  38820
#  50588
#  66860
#  77583
#  88130
#  100815
#  115465
#  129985
#  145048
#  156918
#  169388
#
# Disc length: 2488 seconds
#
# Revision: 0
# Processed by: cddbd v1.4PL0 Copyright (c) Steve Scherf et al.
# Submitted via: AltoMP3_Maker 3.0
#
DISCID=bc09b60e
DTITLE=Stampen en Dagen - ... ergens op den buiten
DYEAR=1900
DGENRE=
TTITLE0=Marie-Claire
TTITLE1=Den Boemeltrein
TTITLE2=Tandem
TTITLE3=Billy the Kid
TTITLE4=Z'is t'er vanonder
TTITLE5=My baby is gone
TTITLE6=Ons Strotje
TTITLE7=Margrietje
TTITLE8=Meiskens van den buiten
TTITLE9=Tinne
TTITLE10=Den Avond Nadien
TTITLE11=Ik en mijnen hond
TTITLE12=Schoon Moksken
TTITLE13=Leuke Dingen
EXTD=
EXTT0=
EXTT1=
EXTT2=
EXTT3=
EXTT4=
EXTT5=
EXTT6=
EXTT7=
EXTT8=
EXTT9=
EXTT10=
EXTT11=
EXTT12=
EXTT13=
PLAYORDER=
